<?xml version="1.0" standalone="no"?>
<!DOCTYPE svg PUBLIC "-//W3C//DTD SVG 20010904//EN"
 "http://www.w3.org/TR/2001/REC-SVG-20010904/DTD/svg10.dtd">
<svg version="1.0" xmlns="http://www.w3.org/2000/svg"
 width="260.000000pt" height="260.000000pt" viewBox="0 0 260.000000 260.000000"
 preserveAspectRatio="xMidYMid meet">
<metadata>
Created by potrace 1.14, written by Peter Selinger 2001-2017
</metadata>
<g transform="translate(0.000000,260.000000) scale(0.100000,-0.100000)"
fill="#000000" stroke="none">
<path d="M1533 1926 c-84 -27 -167 -87 -209 -151 -17 -26 -18 -26 -31 -9 -47
64 -64 81 -112 112 -49 32 -62 35 -125 35 -158 1 -275 -113 -333 -324 -9 -32
-15 -1053 -6 -1087 5 -23 7 -24 13 -6 10 27 12 94 14 383 l1 255 300 -3 c165
-1 302 -4 304 -7 2 -2 5 -141 5 -309 1 -226 5 -308 14 -317 14 -14 14 -31 16
347 1 277 1 280 22 283 12 2 37 -6 57 -17 51 -29 110 -42 180 -42 78 1 96 4
163 35 48 22 69 25 184 27 72 0 133 5 136 10 3 5 -5 9 -18 10 -13 0 -45 2 -73
4 -27 2 -70 4 -95 5 -44 1 -44 1 -25 18 37 31 111 153 115 187 0 3 0 6 1 8 12
39 16 118 7 123 -4 3 -8 2 -9 -3 0 -4 -2 -21 -3 -38 -6 -79 -73 -204 -141
-263 l-36 -32 -208 0 -208 0 -24 26 c-23 24 -24 33 -26 157 -2 197 -10 243
-57 358 -9 21 46 94 107 140 66 49 133 69 226 65 119 -4 218 -60 293 -166 20
-29 57 -111 64 -142 1 -5 3 -10 4 -13 5 -10 8 -25 9 -52 0 -14 4 -23 8 -20 3
4 6 24 5 44 -7 147 -101 285 -239 349 -71 32 -202 42 -270 20z m-362 -77 c54
-38 114 -120 106 -146 -3 -10 -13 -38 -22 -62 -42 -116 -17 -289 58 -394 24
-34 42 -68 40 -74 -4 -10 -70 -13 -276 -13 -150 -1 -285 -2 -302 -3 l-30 -2 0
215 1 215 34 80 c81 193 256 275 391 184z m183 -457 l1 -143 -22 25 c-62 73
-88 259 -49 361 l19 49 25 -75 c21 -64 25 -94 26 -217z m411 -275 c-28 -17
-230 -16 -247 1 -10 9 16 12 128 12 114 -1 135 -3 119 -13z"/>
</g>
</svg>
